# MagicaVoxel @ Ephtracy

# group
o 

# material
mtllib Bow obj.mtl
usemtl palette

# normals
vn -1 0 0
vn 1 0 0
vn 0 0 1
vn 0 0 -1
vn 0 -1 0
vn 0 1 0

# texcoords
vt 0.119141 0.5
vt 0.552734 0.5
vt 0.994141 0.5

# verts
v -1.4 0.1 0.4
v -1.4 0.1 0.2
v -1.4 0.2 0.4
v -1.4 0.2 0.2
v -1.1 0.1 0.4
v -1.1 0.1 0.3
v -1.1 0.2 0.4
v -1.1 0.2 0.3
v -1 0.1 0.5
v -1 0.1 0.4
v -1 0.2 0.5
v -1 0.2 0.4
v -0.9 0 0.6
v -0.9 0 0.4
v -0.9 0.1 0.7
v -0.9 0.1 0.6
v -0.9 0.1 0.5
v -0.9 0.1 0.4
v -0.9 0.2 0.7
v -0.9 0.2 0.5
v -0.7 0 0.8
v -0.7 0 0.6
v -0.7 0.1 0.7
v -0.7 0.1 0.6
v -0.7 0.2 0.8
v -0.7 0.2 0.7
v -0.5 0 0.9
v -0.5 0 0.8
v -0.5 0.2 0.9
v -0.5 0.2 0.8
v 0.2 0 0.9
v 0.2 0 0.8
v 0.2 0.1 0.8
v 0.2 0.1 0.7
v 0.2 0.2 0.9
v 0.2 0.2 0.7
v 0.5 0 0.7
v 0.5 0 0.6
v 0.5 0.1 0.7
v 0.5 0.2 0.7
v 0.5 0.2 0.6
v 0.6 0 0.6
v 0.6 0 0.5
v 0.6 0.2 0.6
v 0.6 0.2 0.5
v 0.7 0 0.5
v 0.7 0 0.4
v 0.7 0.2 0.5
v 0.7 0.2 0.4
v 0.9 0.1 0.4
v 0.9 0.1 0.3
v 0.9 0.2 0.4
v 0.9 0.2 0.3
v 1 0.1 0.3
v 1 0.1 0.2
v 1 0.2 0.3
v 1 0.2 0.2
v 1.3 0.1 0.4
v 1.3 0.1 0.3
v 1.3 0.2 0.4
v 1.3 0.2 0.3
v -1.3 0.1 0.4
v -1.3 0.1 0.3
v -1.3 0.2 0.4
v -1.3 0.2 0.3
v -1 0.1 0.3
v -1 0.1 0.2
v -1 0.2 0.3
v -1 0.2 0.2
v -0.9 0.1 0.4
v -0.9 0.1 0.3
v -0.9 0.2 0.4
v -0.9 0.2 0.3
v -0.7 0 0.5
v -0.7 0 0.4
v -0.7 0.2 0.5
v -0.7 0.2 0.4
v -0.6 0 0.6
v -0.6 0 0.5
v -0.6 0.2 0.6
v -0.6 0.2 0.5
v -0.5 0 0.7
v -0.5 0 0.6
v -0.5 0.1 0.7
v -0.5 0.2 0.7
v -0.5 0.2 0.6
v -0.2 0 0.9
v -0.2 0 0.8
v -0.2 0.1 0.8
v -0.2 0.1 0.7
v -0.2 0.2 0.9
v -0.2 0.2 0.7
v 0.5 0 0.9
v 0.5 0 0.8
v 0.5 0.2 0.9
v 0.5 0.2 0.8
v 0.7 0 0.8
v 0.7 0 0.6
v 0.7 0.1 0.7
v 0.7 0.1 0.6
v 0.7 0.2 0.8
v 0.7 0.2 0.7
v 0.9 0 0.6
v 0.9 0 0.4
v 0.9 0.1 0.7
v 0.9 0.1 0.6
v 0.9 0.1 0.5
v 0.9 0.1 0.4
v 0.9 0.2 0.7
v 0.9 0.2 0.5
v 1 0.1 0.5
v 1 0.1 0.4
v 1 0.2 0.5
v 1 0.2 0.4
v 1.1 0.1 0.4
v 1.1 0.1 0.3
v 1.1 0.2 0.4
v 1.1 0.2 0.3
v 1.4 0.1 0.4
v 1.4 0.1 0.2
v 1.4 0.2 0.4
v 1.4 0.2 0.2
v -0.5 0 0.9
v -0.5 0.2 0.9
v -0.3 0 0.9
v -0.3 0.2 0.9
v -0.2 0 0.9
v -0.2 0.2 0.9
v 0.2 0 0.9
v 0.2 0.2 0.9
v 0.3 0 0.9
v 0.3 0.2 0.9
v 0.5 0 0.9
v 0.5 0.2 0.9
v -0.7 0 0.8
v -0.7 0.2 0.8
v -0.5 0 0.8
v -0.5 0.2 0.8
v -0.2 0 0.8
v -0.2 0.1 0.8
v 0.2 0 0.8
v 0.2 0.1 0.8
v 0.5 0 0.8
v 0.5 0.2 0.8
v 0.7 0 0.8
v 0.7 0.2 0.8
v -0.9 0.1 0.7
v -0.9 0.2 0.7
v -0.7 0.1 0.7
v -0.7 0.2 0.7
v 0.7 0.1 0.7
v 0.7 0.2 0.7
v 0.9 0.1 0.7
v 0.9 0.2 0.7
v -0.9 0 0.6
v -0.9 0.1 0.6
v -0.7 0 0.6
v -0.7 0.1 0.6
v 0.7 0 0.6
v 0.7 0.1 0.6
v 0.9 0 0.6
v 0.9 0.1 0.6
v -1 0.1 0.5
v -1 0.2 0.5
v -0.9 0.1 0.5
v -0.9 0.2 0.5
v 0.9 0.1 0.5
v 0.9 0.2 0.5
v 1 0.1 0.5
v 1 0.2 0.5
v -1.4 0.1 0.4
v -1.4 0.2 0.4
v -1.3 0.1 0.4
v -1.3 0.2 0.4
v -1.1 0.1 0.4
v -1.1 0.2 0.4
v -1 0.1 0.4
v -1 0.2 0.4
v 1 0.1 0.4
v 1 0.2 0.4
v 1.1 0.1 0.4
v 1.1 0.2 0.4
v 1.3 0.1 0.4
v 1.3 0.2 0.4
v 1.4 0.1 0.4
v 1.4 0.2 0.4
v -1.3 0.1 0.3
v -1.3 0.2 0.3
v -1.2 0.1 0.3
v -1.2 0.2 0.3
v -1.1 0.1 0.3
v -1.1 0.2 0.3
v 1.1 0.1 0.3
v 1.1 0.2 0.3
v 1.2 0.1 0.3
v 1.2 0.2 0.3
v 1.3 0.1 0.3
v 1.3 0.2 0.3
v -0.5 0 0.7
v -0.5 0.1 0.7
v -0.5 0.2 0.7
v -0.4 0.1 0.7
v -0.4 0.2 0.7
v -0.3 0 0.7
v -0.3 0.2 0.7
v -0.2 0 0.7
v -0.2 0.1 0.7
v -0.2 0.2 0.7
v 0.2 0 0.7
v 0.2 0.1 0.7
v 0.2 0.2 0.7
v 0.3 0 0.7
v 0.3 0.2 0.7
v 0.4 0.1 0.7
v 0.4 0.2 0.7
v 0.5 0 0.7
v 0.5 0.1 0.7
v 0.5 0.2 0.7
v -0.6 0 0.6
v -0.6 0.2 0.6
v -0.5 0 0.6
v -0.5 0.2 0.6
v 0.5 0 0.6
v 0.5 0.2 0.6
v 0.6 0 0.6
v 0.6 0.2 0.6
v -0.7 0 0.5
v -0.7 0.2 0.5
v -0.6 0 0.5
v -0.6 0.2 0.5
v 0.6 0 0.5
v 0.6 0.2 0.5
v 0.7 0 0.5
v 0.7 0.2 0.5
v -0.9 0 0.4
v -0.9 0.1 0.4
v -0.9 0.2 0.4
v -0.7 0 0.4
v -0.7 0.2 0.4
v 0.7 0 0.4
v 0.7 0.2 0.4
v 0.9 0 0.4
v 0.9 0.1 0.4
v 0.9 0.2 0.4
v -1 0.1 0.3
v -1 0.2 0.3
v -0.9 0.1 0.3
v -0.9 0.2 0.3
v 0.9 0.1 0.3
v 0.9 0.2 0.3
v 1 0.1 0.3
v 1 0.2 0.3
v -1.4 0.1 0.2
v -1.4 0.2 0.2
v -1.2 0.1 0.2
v -1.2 0.2 0.2
v -1 0.1 0.2
v -1 0.2 0.2
v 1 0.1 0.2
v 1 0.2 0.2
v 1.2 0.1 0.2
v 1.2 0.2 0.2
v 1.4 0.1 0.2
v 1.4 0.2 0.2
v -0.5 0 0.9
v -0.3 0 0.9
v -0.2 0 0.9
v 0.2 0 0.9
v 0.3 0 0.9
v 0.5 0 0.9
v -0.7 0 0.8
v -0.5 0 0.8
v -0.2 0 0.8
v 0.2 0 0.8
v 0.5 0 0.8
v 0.7 0 0.8
v -0.5 0 0.7
v -0.3 0 0.7
v -0.2 0 0.7
v 0.2 0 0.7
v 0.3 0 0.7
v 0.5 0 0.7
v -0.9 0 0.6
v -0.7 0 0.6
v -0.6 0 0.6
v -0.5 0 0.6
v 0.5 0 0.6
v 0.6 0 0.6
v 0.7 0 0.6
v 0.9 0 0.6
v -0.7 0 0.5
v -0.6 0 0.5
v 0.6 0 0.5
v 0.7 0 0.5
v -0.9 0 0.4
v -0.7 0 0.4
v 0.7 0 0.4
v 0.9 0 0.4
v -0.9 0.1 0.7
v -0.7 0.1 0.7
v 0.7 0.1 0.7
v 0.9 0.1 0.7
v -0.9 0.1 0.6
v -0.7 0.1 0.6
v 0.7 0.1 0.6
v 0.9 0.1 0.6
v -1 0.1 0.5
v -0.9 0.1 0.5
v 0.9 0.1 0.5
v 1 0.1 0.5
v -1.4 0.1 0.4
v -1.3 0.1 0.4
v -1.1 0.1 0.4
v -1 0.1 0.4
v -0.9 0.1 0.4
v 0.9 0.1 0.4
v 1 0.1 0.4
v 1.1 0.1 0.4
v 1.3 0.1 0.4
v 1.4 0.1 0.4
v -1.3 0.1 0.3
v -1.2 0.1 0.3
v -1.1 0.1 0.3
v -1 0.1 0.3
v -0.9 0.1 0.3
v 0.9 0.1 0.3
v 1 0.1 0.3
v 1.1 0.1 0.3
v 1.2 0.1 0.3
v 1.3 0.1 0.3
v -1.4 0.1 0.2
v -1.2 0.1 0.2
v -1 0.1 0.2
v 1 0.1 0.2
v 1.2 0.1 0.2
v 1.4 0.1 0.2
v -0.2 0.1 0.8
v 0.2 0.1 0.8
v -0.2 0.1 0.7
v 0.2 0.1 0.7
v -0.5 0.2 0.9
v -0.3 0.2 0.9
v -0.2 0.2 0.9
v 0.2 0.2 0.9
v 0.3 0.2 0.9
v 0.5 0.2 0.9
v -0.7 0.2 0.8
v -0.5 0.2 0.8
v -0.4 0.2 0.8
v 0.4 0.2 0.8
v 0.5 0.2 0.8
v 0.7 0.2 0.8
v -0.9 0.2 0.7
v -0.7 0.2 0.7
v -0.6 0.2 0.7
v -0.5 0.2 0.7
v -0.4 0.2 0.7
v -0.3 0.2 0.7
v -0.2 0.2 0.7
v 0.2 0.2 0.7
v 0.3 0.2 0.7
v 0.4 0.2 0.7
v 0.5 0.2 0.7
v 0.6 0.2 0.7
v 0.7 0.2 0.7
v 0.9 0.2 0.7
v -0.8 0.2 0.6
v -0.7 0.2 0.6
v -0.6 0.2 0.6
v -0.5 0.2 0.6
v 0.5 0.2 0.6
v 0.6 0.2 0.6
v 0.7 0.2 0.6
v 0.8 0.2 0.6
v -1 0.2 0.5
v -0.9 0.2 0.5
v -0.8 0.2 0.5
v -0.7 0.2 0.5
v -0.6 0.2 0.5
v 0.6 0.2 0.5
v 0.7 0.2 0.5
v 0.8 0.2 0.5
v 0.9 0.2 0.5
v 1 0.2 0.5
v -1.4 0.2 0.4
v -1.3 0.2 0.4
v -1.1 0.2 0.4
v -1 0.2 0.4
v -0.9 0.2 0.4
v -0.7 0.2 0.4
v 0.7 0.2 0.4
v 0.9 0.2 0.4
v 1 0.2 0.4
v 1.1 0.2 0.4
v 1.3 0.2 0.4
v 1.4 0.2 0.4
v -1.3 0.2 0.3
v -1.2 0.2 0.3
v -1.1 0.2 0.3
v -1 0.2 0.3
v -0.9 0.2 0.3
v 0.9 0.2 0.3
v 1 0.2 0.3
v 1.1 0.2 0.3
v 1.2 0.2 0.3
v 1.3 0.2 0.3
v -1.4 0.2 0.2
v -1.2 0.2 0.2
v -1 0.2 0.2
v 1 0.2 0.2
v 1.2 0.2 0.2
v 1.4 0.2 0.2

# faces
f 3/3/1 2/3/1 1/3/1
f 4/3/1 2/3/1 3/3/1
f 7/2/1 6/2/1 5/2/1
f 8/2/1 6/2/1 7/2/1
f 11/2/1 10/2/1 9/2/1
f 12/2/1 10/2/1 11/2/1
f 16/2/1 14/2/1 13/2/1
f 17/2/1 14/2/1 16/2/1
f 18/2/1 14/2/1 17/2/1
f 19/2/1 16/2/1 15/2/1
f 19/2/1 17/2/1 16/2/1
f 20/2/1 17/2/1 19/2/1
f 23/2/1 22/2/1 21/2/1
f 24/2/1 22/2/1 23/2/1
f 25/2/1 23/2/1 21/2/1
f 26/2/1 23/2/1 25/2/1
f 29/2/1 28/2/1 27/2/1
f 30/2/1 28/2/1 29/2/1
f 33/3/1 32/3/1 31/3/1
f 35/3/1 33/3/1 31/3/1
f 35/3/1 34/3/1 33/3/1
f 36/3/1 34/3/1 35/3/1
f 39/2/1 38/2/1 37/2/1
f 40/2/1 38/2/1 39/2/1
f 41/2/1 38/2/1 40/2/1
f 44/2/1 43/2/1 42/2/1
f 45/2/1 43/2/1 44/2/1
f 48/2/1 47/2/1 46/2/1
f 49/2/1 47/2/1 48/2/1
f 52/2/1 51/2/1 50/2/1
f 53/2/1 51/2/1 52/2/1
f 56/2/1 55/2/1 54/2/1
f 57/2/1 55/2/1 56/2/1
f 60/3/1 59/3/1 58/3/1
f 61/3/1 59/3/1 60/3/1
f 62/3/2 63/3/2 64/3/2
f 64/3/2 63/3/2 65/3/2
f 66/2/2 67/2/2 68/2/2
f 68/2/2 67/2/2 69/2/2
f 70/2/2 71/2/2 72/2/2
f 72/2/2 71/2/2 73/2/2
f 74/2/2 75/2/2 76/2/2
f 76/2/2 75/2/2 77/2/2
f 78/2/2 79/2/2 80/2/2
f 80/2/2 79/2/2 81/2/2
f 82/2/2 83/2/2 84/2/2
f 84/2/2 83/2/2 85/2/2
f 85/2/2 83/2/2 86/2/2
f 87/3/2 88/3/2 89/3/2
f 87/3/2 89/3/2 91/3/2
f 89/3/2 90/3/2 91/3/2
f 91/3/2 90/3/2 92/3/2
f 93/2/2 94/2/2 95/2/2
f 95/2/2 94/2/2 96/2/2
f 97/2/2 98/2/2 99/2/2
f 99/2/2 98/2/2 100/2/2
f 97/2/2 99/2/2 101/2/2
f 101/2/2 99/2/2 102/2/2
f 103/2/2 104/2/2 106/2/2
f 106/2/2 104/2/2 107/2/2
f 107/2/2 104/2/2 108/2/2
f 105/2/2 106/2/2 109/2/2
f 106/2/2 107/2/2 109/2/2
f 109/2/2 107/2/2 110/2/2
f 111/2/2 112/2/2 113/2/2
f 113/2/2 112/2/2 114/2/2
f 115/2/2 116/2/2 117/2/2
f 117/2/2 116/2/2 118/2/2
f 119/3/2 120/3/2 121/3/2
f 121/3/2 120/3/2 122/3/2
f 125/2/3 124/2/3 123/2/3
f 126/2/3 124/2/3 125/2/3
f 127/3/3 126/3/3 125/3/3
f 128/3/3 126/3/3 127/3/3
f 131/3/3 130/3/3 129/3/3
f 132/3/3 130/3/3 131/3/3
f 133/2/3 132/2/3 131/2/3
f 134/2/3 132/2/3 133/2/3
f 137/2/3 136/2/3 135/2/3
f 138/2/3 136/2/3 137/2/3
f 141/1/3 140/1/3 139/1/3
f 142/1/3 140/1/3 141/1/3
f 145/2/3 144/2/3 143/2/3
f 146/2/3 144/2/3 145/2/3
f 149/2/3 148/2/3 147/2/3
f 150/2/3 148/2/3 149/2/3
f 153/2/3 152/2/3 151/2/3
f 154/2/3 152/2/3 153/2/3
f 157/2/3 156/2/3 155/2/3
f 158/2/3 156/2/3 157/2/3
f 161/2/3 160/2/3 159/2/3
f 162/2/3 160/2/3 161/2/3
f 165/2/3 164/2/3 163/2/3
f 166/2/3 164/2/3 165/2/3
f 169/2/3 168/2/3 167/2/3
f 170/2/3 168/2/3 169/2/3
f 173/3/3 172/3/3 171/3/3
f 174/3/3 172/3/3 173/3/3
f 177/2/3 176/2/3 175/2/3
f 178/2/3 176/2/3 177/2/3
f 181/2/3 180/2/3 179/2/3
f 182/2/3 180/2/3 181/2/3
f 185/3/3 184/3/3 183/3/3
f 186/3/3 184/3/3 185/3/3
f 189/3/3 188/3/3 187/3/3
f 190/3/3 188/3/3 189/3/3
f 191/2/3 190/2/3 189/2/3
f 192/2/3 190/2/3 191/2/3
f 195/2/3 194/2/3 193/2/3
f 196/2/3 194/2/3 195/2/3
f 197/3/3 196/3/3 195/3/3
f 198/3/3 196/3/3 197/3/3
f 199/2/4 200/2/4 202/2/4
f 200/1/4 201/1/4 202/1/4
f 202/1/4 201/1/4 203/1/4
f 199/2/4 202/2/4 204/2/4
f 202/2/4 203/2/4 204/2/4
f 204/2/4 203/2/4 205/2/4
f 204/3/4 205/3/4 206/3/4
f 206/3/4 205/3/4 207/3/4
f 207/3/4 205/3/4 208/3/4
f 206/1/4 207/1/4 209/1/4
f 209/1/4 207/1/4 210/1/4
f 209/3/4 210/3/4 212/3/4
f 210/3/4 211/3/4 212/3/4
f 212/3/4 211/3/4 213/3/4
f 212/2/4 213/2/4 214/2/4
f 214/2/4 213/2/4 215/2/4
f 212/2/4 214/2/4 216/2/4
f 214/1/4 215/1/4 217/1/4
f 216/2/4 214/2/4 217/2/4
f 217/1/4 215/1/4 218/1/4
f 219/2/4 220/2/4 221/2/4
f 221/2/4 220/2/4 222/2/4
f 223/2/4 224/2/4 225/2/4
f 225/2/4 224/2/4 226/2/4
f 227/2/4 228/2/4 229/2/4
f 229/2/4 228/2/4 230/2/4
f 231/2/4 232/2/4 233/2/4
f 233/2/4 232/2/4 234/2/4
f 235/2/4 236/2/4 238/2/4
f 236/2/4 237/2/4 238/2/4
f 238/2/4 237/2/4 239/2/4
f 240/2/4 241/2/4 242/2/4
f 242/2/4 241/2/4 243/2/4
f 243/2/4 241/2/4 244/2/4
f 245/2/4 246/2/4 247/2/4
f 247/2/4 246/2/4 248/2/4
f 249/2/4 250/2/4 251/2/4
f 251/2/4 250/2/4 252/2/4
f 253/3/4 254/3/4 255/3/4
f 255/3/4 254/3/4 256/3/4
f 255/2/4 256/2/4 257/2/4
f 257/2/4 256/2/4 258/2/4
f 259/2/4 260/2/4 261/2/4
f 261/2/4 260/2/4 262/2/4
f 261/3/4 262/3/4 263/3/4
f 263/3/4 262/3/4 264/3/4
f 272/2/5 266/2/5 265/2/5
f 273/3/5 267/3/5 266/3/5
f 274/3/5 269/3/5 268/3/5
f 275/2/5 270/2/5 269/2/5
f 277/2/5 272/2/5 271/2/5
f 277/2/5 266/2/5 272/2/5
f 278/3/5 273/3/5 266/3/5
f 278/2/5 266/2/5 277/2/5
f 279/1/5 274/1/5 273/1/5
f 279/3/5 273/3/5 278/3/5
f 280/3/5 269/3/5 274/3/5
f 280/1/5 274/1/5 279/1/5
f 281/2/5 276/2/5 275/2/5
f 281/3/5 269/3/5 280/3/5
f 281/2/5 275/2/5 269/2/5
f 282/2/5 276/2/5 281/2/5
f 284/2/5 277/2/5 271/2/5
f 285/2/5 277/2/5 284/2/5
f 286/2/5 277/2/5 285/2/5
f 287/2/5 276/2/5 282/2/5
f 288/2/5 276/2/5 287/2/5
f 289/2/5 276/2/5 288/2/5
f 291/2/5 284/2/5 283/2/5
f 291/2/5 285/2/5 284/2/5
f 292/2/5 285/2/5 291/2/5
f 293/2/5 290/2/5 289/2/5
f 293/2/5 289/2/5 288/2/5
f 294/2/5 290/2/5 293/2/5
f 295/2/5 291/2/5 283/2/5
f 296/2/5 291/2/5 295/2/5
f 297/2/5 290/2/5 294/2/5
f 298/2/5 290/2/5 297/2/5
f 303/2/5 300/2/5 299/2/5
f 304/2/5 300/2/5 303/2/5
f 305/2/5 302/2/5 301/2/5
f 306/2/5 302/2/5 305/2/5
f 314/2/5 308/2/5 307/2/5
f 315/2/5 308/2/5 314/2/5
f 316/2/5 310/2/5 309/2/5
f 317/2/5 310/2/5 316/2/5
f 321/3/5 312/3/5 311/3/5
f 323/2/5 315/2/5 314/2/5
f 323/2/5 314/2/5 313/2/5
f 324/2/5 315/2/5 323/2/5
f 325/2/5 315/2/5 324/2/5
f 326/2/5 317/2/5 316/2/5
f 326/2/5 318/2/5 317/2/5
f 327/2/5 318/2/5 326/2/5
f 328/2/5 318/2/5 327/2/5
f 330/3/5 320/3/5 319/3/5
f 331/3/5 322/3/5 321/3/5
f 331/3/5 321/3/5 311/3/5
f 332/2/5 324/2/5 323/2/5
f 332/3/5 322/3/5 331/3/5
f 332/2/5 323/2/5 322/2/5
f 333/2/5 324/2/5 332/2/5
f 334/2/5 329/2/5 328/2/5
f 334/2/5 328/2/5 327/2/5
f 335/3/5 330/3/5 329/3/5
f 335/2/5 329/2/5 334/2/5
f 336/3/5 320/3/5 330/3/5
f 336/3/5 330/3/5 335/3/5
f 337/1/6 338/1/6 339/1/6
f 339/1/6 338/1/6 340/1/6
f 341/2/6 342/2/6 348/2/6
f 348/2/6 342/2/6 349/2/6
f 345/2/6 346/2/6 350/2/6
f 350/2/6 346/2/6 351/2/6
f 347/2/6 348/2/6 354/2/6
f 354/2/6 348/2/6 355/2/6
f 348/1/6 349/1/6 356/1/6
f 355/2/6 348/2/6 356/2/6
f 349/2/6 342/2/6 357/2/6
f 356/1/6 349/1/6 357/1/6
f 342/3/6 343/3/6 358/3/6
f 357/2/6 342/2/6 358/2/6
f 358/3/6 343/3/6 359/3/6
f 344/3/6 345/3/6 360/3/6
f 345/2/6 350/2/6 361/2/6
f 360/3/6 345/3/6 361/3/6
f 350/1/6 351/1/6 362/1/6
f 361/2/6 350/2/6 362/2/6
f 351/2/6 352/2/6 363/2/6
f 362/1/6 351/1/6 363/1/6
f 363/2/6 352/2/6 364/2/6
f 364/2/6 352/2/6 365/2/6
f 353/2/6 354/2/6 367/2/6
f 354/1/6 355/1/6 368/1/6
f 367/2/6 354/2/6 368/2/6
f 355/2/6 356/2/6 369/2/6
f 368/1/6 355/1/6 369/1/6
f 369/2/6 356/2/6 370/2/6
f 363/2/6 364/2/6 371/2/6
f 364/1/6 365/1/6 372/1/6
f 371/2/6 364/2/6 372/2/6
f 365/2/6 366/2/6 373/2/6
f 372/1/6 365/1/6 373/1/6
f 373/2/6 366/2/6 374/2/6
f 353/2/6 367/2/6 376/2/6
f 367/1/6 368/1/6 377/1/6
f 376/2/6 367/2/6 377/2/6
f 368/2/6 369/2/6 378/2/6
f 377/1/6 368/1/6 378/1/6
f 378/2/6 369/2/6 379/2/6
f 372/2/6 373/2/6 380/2/6
f 373/1/6 374/1/6 381/1/6
f 380/2/6 373/2/6 381/2/6
f 374/2/6 366/2/6 382/2/6
f 381/1/6 374/1/6 382/1/6
f 382/2/6 366/2/6 383/2/6
f 375/2/6 376/2/6 388/2/6
f 376/2/6 377/2/6 388/2/6
f 377/2/6 378/2/6 388/2/6
f 388/2/6 378/2/6 389/2/6
f 389/2/6 378/2/6 390/2/6
f 383/2/6 384/2/6 391/2/6
f 382/2/6 383/2/6 391/2/6
f 381/2/6 382/2/6 391/2/6
f 391/2/6 384/2/6 392/2/6
f 392/2/6 384/2/6 393/2/6
f 385/3/6 386/3/6 397/3/6
f 388/2/6 389/2/6 399/2/6
f 387/2/6 388/2/6 399/2/6
f 399/2/6 389/2/6 400/2/6
f 400/2/6 389/2/6 401/2/6
f 393/2/6 394/2/6 402/2/6
f 392/2/6 393/2/6 402/2/6
f 402/2/6 394/2/6 403/2/6
f 403/2/6 394/2/6 404/2/6
f 395/3/6 396/3/6 406/3/6
f 397/3/6 398/3/6 407/3/6
f 385/3/6 397/3/6 407/3/6
f 399/2/6 400/2/6 408/2/6
f 407/3/6 398/3/6 408/3/6
f 398/2/6 399/2/6 408/2/6
f 408/2/6 400/2/6 409/2/6
f 404/2/6 405/2/6 410/2/6
f 403/2/6 404/2/6 410/2/6
f 405/3/6 406/3/6 411/3/6
f 410/2/6 405/2/6 411/2/6
f 406/3/6 396/3/6 412/3/6
f 411/3/6 406/3/6 412/3/6
