# MagicaVoxel @ Ephtracy

# group
o 

# material
mtllib Harp obj.mtl
usemtl palette

# normals
vn -1 0 0
vn 1 0 0
vn 0 0 1
vn 0 0 -1
vn 0 -1 0
vn 0 1 0

# texcoords
vt 0.0136719 0.5
vt 0.0371094 0.5
vt 0.705078 0.5
vt 0.958984 0.5

# verts
v -0.8 0 -0.2
v -0.8 0 -0.3
v -0.8 0.2 -0.2
v -0.8 0.2 -0.3
v -0.7 0 0.1
v -0.7 0 -0.2
v -0.7 0.2 0.1
v -0.7 0.2 -0.2
v -0.6 0 0.3
v -0.6 0 0.1
v -0.6 0.1 0.3
v -0.6 0.1 0.2
v -0.6 0.2 0.3
v -0.6 0.2 0.2
v -0.6 0.2 0.1
v -0.5 0 0.5
v -0.5 0 0.3
v -0.5 0.1 0.3
v -0.5 0.2 0.5
v -0.5 0.2 0.3
v -0.4 0 0.7
v -0.4 0 0.5
v -0.4 0 0.1
v -0.4 0 -0.1
v -0.4 0.1 0.7
v -0.4 0.1 0.6
v -0.4 0.1 0.1
v -0.4 0.1 -0.1
v -0.4 0.2 0.7
v -0.4 0.2 0.6
v -0.4 0.2 0.5
v -0.3 0 0.9
v -0.3 0 0.7
v -0.3 0.1 0.7
v -0.3 0.2 0.9
v -0.3 0.2 0.7
v -0.2 0 1
v -0.2 0 0.9
v -0.2 0 0.5
v -0.2 0 -0.1
v -0.2 0.1 0.5
v -0.2 0.1 -0.1
v -0.2 0.2 1
v -0.2 0.2 0.9
v -0.1 0 1.1
v -0.1 0 1
v -0.1 0.2 1.1
v -0.1 0.2 1
v 0 0 0.8
v 0 0 -0.1
v 0 0.1 0.8
v 0 0.1 -0.1
v 0.1 0.1 0
v 0.1 0.1 -0.1
v 0.1 0.2 0
v 0.1 0.2 -0.1
v 0.2 0 0.8
v 0.2 0 0.7
v 0.2 0 0.6
v 0.2 0 0.5
v 0.2 0 0
v 0.2 0.1 0.7
v 0.2 0.1 0.6
v 0.2 0.1 0.5
v 0.2 0.1 0
v 0.2 0.2 0.8
v 0.2 0.2 0.5
v 0.3 0.1 0.5
v 0.3 0.1 0.4
v 0.3 0.2 0.5
v 0.3 0.2 0.4
v 0.4 0 0.4
v 0.4 0 0.2
v 0.4 0 0
v 0.4 0.1 0.2
v 0.4 0.1 0
v 0.4 0.2 0.4
v 0.4 0.2 0.2
v 0.5 0.1 0.2
v 0.5 0.1 0
v 0.5 0.2 0.2
v 0.5 0.2 0
v -0.6 0 -0.2
v -0.6 0 -0.3
v -0.6 0.2 -0.2
v -0.6 0.2 -0.3
v -0.5 0 0.1
v -0.5 0 0
v -0.5 0 -0.1
v -0.5 0.1 0
v -0.5 0.1 -0.1
v -0.5 0.2 0.1
v -0.5 0.2 -0.1
v -0.4 0.1 0.3
v -0.4 0.1 0.1
v -0.4 0.2 0.3
v -0.4 0.2 0.1
v -0.3 0 0.5
v -0.3 0 0.4
v -0.3 0 0.3
v -0.3 0 -0.1
v -0.3 0.1 0.5
v -0.3 0.1 0.4
v -0.3 0.1 0.3
v -0.3 0.1 -0.1
v -0.3 0.2 0.5
v -0.3 0.2 0.3
v -0.2 0.1 0.7
v -0.2 0.1 0.5
v -0.2 0.2 0.7
v -0.2 0.2 0.5
v -0.1 0 0.8
v -0.1 0 0.7
v -0.1 0 -0.1
v -0.1 0.1 0.8
v -0.1 0.1 0.7
v -0.1 0.1 -0.1
v -0.1 0.2 0.8
v -0.1 0.2 0.7
v 0.1 0 1.1
v 0.1 0 1
v 0.1 0 0.8
v 0.1 0 0
v 0.1 0 -0.1
v 0.1 0 -0.2
v 0.1 0.1 0.8
v 0.1 0.1 0
v 0.1 0.2 1.1
v 0.1 0.2 1
v 0.1 0.2 -0.1
v 0.1 0.2 -0.2
v 0.3 0 1
v 0.3 0 0.8
v 0.3 0 0.4
v 0.3 0 0
v 0.3 0.1 1
v 0.3 0.1 0.9
v 0.3 0.1 0.4
v 0.3 0.1 0
v 0.3 0.2 1
v 0.3 0.2 0.9
v 0.3 0.2 0.8
v 0.4 0 0.8
v 0.4 0 0.5
v 0.4 0.1 0.5
v 0.4 0.2 0.8
v 0.4 0.2 0.5
v 0.5 0 0.5
v 0.5 0 0.4
v 0.5 0.1 0.5
v 0.5 0.1 0.4
v 0.5 0.2 0.5
v 0.5 0.2 0.4
v 0.6 0 0.4
v 0.6 0 0.2
v 0.6 0.2 0.4
v 0.6 0.2 0.2
v 0.7 0 0.2
v 0.7 0 0.1
v 0.7 0.1 0.1
v 0.7 0.2 0.2
v 0.7 0.2 0.1
v 0.8 0 0.1
v 0.8 0 -0.1
v 0.8 0.1 0.1
v 0.8 0.1 0
v 0.8 0.2 0.1
v 0.8 0.2 0
v 0.8 0.2 -0.1
v -0.1 0 1.1
v -0.1 0.2 1.1
v 0.1 0 1.1
v 0.1 0.2 1.1
v -0.2 0 1
v -0.2 0.2 1
v -0.1 0 1
v -0.1 0.2 1
v 0.1 0 1
v 0.1 0.2 1
v 0.2 0.1 1
v 0.2 0.2 1
v 0.3 0 1
v 0.3 0.1 1
v 0.3 0.2 1
v -0.3 0 0.9
v -0.3 0.2 0.9
v -0.2 0 0.9
v -0.2 0.2 0.9
v 0.3 0 0.8
v 0.3 0.2 0.8
v 0.4 0 0.8
v 0.4 0.2 0.8
v -0.4 0 0.7
v -0.4 0.1 0.7
v -0.4 0.2 0.7
v -0.3 0 0.7
v -0.3 0.1 0.7
v -0.3 0.2 0.7
v -0.5 0 0.5
v -0.5 0.2 0.5
v -0.4 0 0.5
v -0.4 0.2 0.5
v 0.4 0 0.5
v 0.4 0.1 0.5
v 0.4 0.2 0.5
v 0.5 0 0.5
v 0.5 0.1 0.5
v 0.5 0.2 0.5
v 0.5 0 0.4
v 0.5 0.1 0.4
v 0.5 0.2 0.4
v 0.6 0 0.4
v 0.6 0.2 0.4
v -0.6 0 0.3
v -0.6 0.1 0.3
v -0.6 0.2 0.3
v -0.5 0 0.3
v -0.5 0.1 0.3
v -0.5 0.2 0.3
v 0.6 0 0.2
v 0.6 0.2 0.2
v 0.7 0 0.2
v 0.7 0.2 0.2
v -0.7 0 0.1
v -0.7 0.2 0.1
v -0.6 0 0.1
v -0.6 0.2 0.1
v 0.7 0 0.1
v 0.7 0.1 0.1
v 0.7 0.2 0.1
v 0.8 0 0.1
v 0.8 0.1 0.1
v 0.8 0.2 0.1
v 0.1 0 0
v 0.1 0.1 0
v 0.1 0.2 0
v 0.2 0 0
v 0.2 0.1 0
v 0.3 0 0
v 0.3 0.1 0
v 0.4 0 0
v 0.4 0.1 0
v 0.5 0.1 0
v 0.5 0.2 0
v -0.5 0 -0.1
v -0.5 0.1 -0.1
v -0.5 0.2 -0.1
v -0.4 0 -0.1
v -0.4 0.1 -0.1
v -0.3 0 -0.1
v -0.3 0.1 -0.1
v -0.2 0 -0.1
v -0.2 0.1 -0.1
v -0.1 0 -0.1
v -0.1 0.1 -0.1
v 0 0 -0.1
v 0 0.1 -0.1
v 0.1 0.1 -0.1
v 0.1 0.2 -0.1
v -0.8 0 -0.2
v -0.8 0.2 -0.2
v -0.7 0 -0.2
v -0.7 0.2 -0.2
v -0.1 0 0.8
v -0.1 0.1 0.8
v -0.1 0.2 0.8
v 0 0 0.8
v 0 0.1 0.8
v 0.1 0 0.8
v 0.1 0.1 0.8
v 0.2 0 0.8
v 0.2 0.2 0.8
v -0.2 0.1 0.7
v -0.2 0.2 0.7
v -0.1 0.1 0.7
v -0.1 0.2 0.7
v -0.3 0 0.5
v -0.3 0.1 0.5
v -0.3 0.2 0.5
v -0.2 0 0.5
v -0.2 0.1 0.5
v -0.2 0.2 0.5
v 0.2 0.1 0.5
v 0.2 0.2 0.5
v 0.3 0.1 0.5
v 0.3 0.2 0.5
v 0.3 0 0.4
v 0.3 0.1 0.4
v 0.3 0.2 0.4
v 0.4 0 0.4
v 0.4 0.2 0.4
v -0.4 0.1 0.3
v -0.4 0.2 0.3
v -0.3 0.1 0.3
v -0.3 0.2 0.3
v 0.4 0.1 0.2
v 0.4 0.2 0.2
v 0.5 0.1 0.2
v 0.5 0.2 0.2
v -0.5 0 0.1
v -0.5 0.2 0.1
v -0.4 0 0.1
v -0.4 0.1 0.1
v -0.4 0.2 0.1
v 0.1 0 -0.1
v 0.1 0.2 -0.1
v 0.6 0 -0.1
v 0.6 0.2 -0.1
v 0.8 0 -0.1
v 0.8 0.2 -0.1
v -0.6 0 -0.2
v -0.6 0.2 -0.2
v -0.5 0 -0.2
v -0.5 0.2 -0.2
v 0.1 0 -0.2
v 0.1 0.2 -0.2
v -0.8 0 -0.3
v -0.8 0.2 -0.3
v -0.6 0 -0.3
v -0.6 0.2 -0.3
v -0.1 0 1.1
v 0.1 0 1.1
v -0.2 0 1
v -0.1 0 1
v 0.1 0 1
v 0.3 0 1
v -0.3 0 0.9
v -0.2 0 0.9
v -0.1 0 0.9
v 0 0 0.9
v -0.1 0 0.8
v 0 0 0.8
v 0.1 0 0.8
v 0.2 0 0.8
v 0.3 0 0.8
v 0.4 0 0.8
v -0.4 0 0.7
v -0.3 0 0.7
v -0.2 0 0.7
v -0.1 0 0.7
v 0.2 0 0.7
v 0.3 0 0.7
v 0.2 0 0.6
v 0.3 0 0.6
v -0.5 0 0.5
v -0.4 0 0.5
v -0.3 0 0.5
v -0.2 0 0.5
v 0.2 0 0.5
v 0.3 0 0.5
v 0.4 0 0.5
v 0.5 0 0.5
v -0.4 0 0.4
v -0.3 0 0.4
v 0.3 0 0.4
v 0.4 0 0.4
v 0.5 0 0.4
v 0.6 0 0.4
v -0.6 0 0.3
v -0.5 0 0.3
v -0.4 0 0.3
v -0.3 0 0.3
v 0.4 0 0.2
v 0.5 0 0.2
v 0.6 0 0.2
v 0.7 0 0.2
v -0.7 0 0.1
v -0.6 0 0.1
v -0.5 0 0.1
v -0.4 0 0.1
v 0.5 0 0.1
v 0.6 0 0.1
v 0.7 0 0.1
v 0.8 0 0.1
v -0.6 0 0
v -0.5 0 0
v 0.1 0 0
v 0.2 0 0
v 0.3 0 0
v 0.4 0 0
v 0.5 0 0
v 0.6 0 0
v -0.6 0 -0.1
v -0.5 0 -0.1
v -0.4 0 -0.1
v -0.3 0 -0.1
v -0.2 0 -0.1
v -0.1 0 -0.1
v 0 0 -0.1
v 0.1 0 -0.1
v 0.6 0 -0.1
v 0.8 0 -0.1
v -0.8 0 -0.2
v -0.7 0 -0.2
v -0.6 0 -0.2
v -0.5 0 -0.2
v 0.1 0 -0.2
v -0.8 0 -0.3
v -0.6 0 -0.3
v 0 0.1 0.8
v 0.1 0.1 0.8
v -0.2 0.1 0.7
v -0.1 0.1 0.7
v -0.2 0.1 0.5
v 0.2 0.1 0.5
v 0.3 0.1 0.5
v 0.3 0.1 0.4
v -0.4 0.1 0.3
v -0.3 0.1 0.3
v 0.4 0.1 0.2
v 0.5 0.1 0.2
v -0.4 0.1 0.1
v 0.1 0.1 0
v 0.2 0.1 0
v 0.3 0.1 0
v 0.4 0.1 0
v 0.5 0.1 0
v -0.4 0.1 -0.1
v -0.3 0.1 -0.1
v -0.2 0.1 -0.1
v -0.1 0.1 -0.1
v 0 0.1 -0.1
v 0.1 0.1 -0.1
v -0.1 0.2 1.1
v 0.1 0.2 1.1
v -0.2 0.2 1
v -0.1 0.2 1
v 0.1 0.2 1
v 0.2 0.2 1
v 0.3 0.2 1
v -0.3 0.2 0.9
v -0.2 0.2 0.9
v 0.2 0.2 0.9
v 0.3 0.2 0.9
v -0.1 0.2 0.8
v 0.2 0.2 0.8
v 0.3 0.2 0.8
v 0.4 0.2 0.8
v -0.4 0.2 0.7
v -0.3 0.2 0.7
v -0.2 0.2 0.7
v -0.1 0.2 0.7
v -0.4 0.2 0.6
v -0.3 0.2 0.6
v -0.5 0.2 0.5
v -0.4 0.2 0.5
v -0.3 0.2 0.5
v -0.2 0.2 0.5
v 0.2 0.2 0.5
v 0.3 0.2 0.5
v 0.4 0.2 0.5
v 0.5 0.2 0.5
v 0.3 0.2 0.4
v 0.4 0.2 0.4
v 0.5 0.2 0.4
v 0.6 0.2 0.4
v -0.6 0.2 0.3
v -0.5 0.2 0.3
v -0.4 0.2 0.3
v -0.3 0.2 0.3
v -0.6 0.2 0.2
v -0.5 0.2 0.2
v 0.4 0.2 0.2
v 0.5 0.2 0.2
v 0.6 0.2 0.2
v 0.7 0.2 0.2
v -0.7 0.2 0.1
v -0.6 0.2 0.1
v -0.5 0.2 0.1
v -0.4 0.2 0.1
v 0.7 0.2 0.1
v 0.8 0.2 0.1
v 0.1 0.2 0
v 0.5 0.2 0
v 0.6 0.2 0
v 0.7 0.2 0
v 0.8 0.2 0
v -0.5 0.2 -0.1
v 0.1 0.2 -0.1
v 0.6 0.2 -0.1
v 0.8 0.2 -0.1
v -0.8 0.2 -0.2
v -0.7 0.2 -0.2
v -0.6 0.2 -0.2
v -0.5 0.2 -0.2
v 0.1 0.2 -0.2
v -0.8 0.2 -0.3
v -0.6 0.2 -0.3

# faces
f 3/1/1 2/1/1 1/1/1
f 4/1/1 2/1/1 3/1/1
f 7/1/1 6/1/1 5/1/1
f 8/1/1 6/1/1 7/1/1
f 11/1/1 10/1/1 9/1/1
f 12/1/1 10/1/1 11/1/1
f 13/3/1 12/3/1 11/3/1
f 14/1/1 10/1/1 12/1/1
f 14/3/1 12/3/1 13/3/1
f 15/1/1 10/1/1 14/1/1
f 18/1/1 17/1/1 16/1/1
f 19/1/1 18/1/1 16/1/1
f 20/1/1 18/1/1 19/1/1
f 25/1/1 22/1/1 21/1/1
f 26/1/1 22/1/1 25/1/1
f 27/4/1 24/4/1 23/4/1
f 28/4/1 24/4/1 27/4/1
f 29/3/1 26/3/1 25/3/1
f 30/1/1 22/1/1 26/1/1
f 30/3/1 26/3/1 29/3/1
f 31/1/1 22/1/1 30/1/1
f 34/1/1 33/1/1 32/1/1
f 35/1/1 34/1/1 32/1/1
f 36/1/1 34/1/1 35/1/1
f 41/4/1 40/4/1 39/4/1
f 42/4/1 40/4/1 41/4/1
f 43/1/1 38/1/1 37/1/1
f 44/1/1 38/1/1 43/1/1
f 47/1/1 46/1/1 45/1/1
f 48/1/1 46/1/1 47/1/1
f 51/4/1 50/4/1 49/4/1
f 52/4/1 50/4/1 51/4/1
f 55/2/1 54/2/1 53/2/1
f 56/2/1 54/2/1 55/2/1
f 62/1/1 58/1/1 57/1/1
f 62/3/1 59/3/1 58/3/1
f 63/1/1 60/1/1 59/1/1
f 63/3/1 59/3/1 62/3/1
f 64/4/1 61/4/1 60/4/1
f 64/1/1 60/1/1 63/1/1
f 65/4/1 61/4/1 64/4/1
f 66/1/1 63/1/1 62/1/1
f 66/1/1 62/1/1 57/1/1
f 66/1/1 64/1/1 63/1/1
f 67/1/1 64/1/1 66/1/1
f 70/1/1 69/1/1 68/1/1
f 71/1/1 69/1/1 70/1/1
f 75/1/1 73/1/1 72/1/1
f 75/4/1 74/4/1 73/4/1
f 76/4/1 74/4/1 75/4/1
f 77/1/1 75/1/1 72/1/1
f 78/1/1 75/1/1 77/1/1
f 81/1/1 80/1/1 79/1/1
f 82/1/1 80/1/1 81/1/1
f 83/1/2 84/1/2 85/1/2
f 85/1/2 84/1/2 86/1/2
f 87/1/2 88/1/2 90/1/2
f 88/3/2 89/3/2 90/3/2
f 90/3/2 89/3/2 91/3/2
f 87/1/2 90/1/2 92/1/2
f 90/1/2 91/1/2 92/1/2
f 92/1/2 91/1/2 93/1/2
f 94/1/2 95/1/2 96/1/2
f 96/1/2 95/1/2 97/1/2
f 98/3/2 99/3/2 102/3/2
f 99/1/2 100/1/2 103/1/2
f 102/3/2 99/3/2 103/3/2
f 100/4/2 101/4/2 104/4/2
f 103/1/2 100/1/2 104/1/2
f 104/4/2 101/4/2 105/4/2
f 102/1/2 103/1/2 106/1/2
f 103/1/2 104/1/2 106/1/2
f 106/1/2 104/1/2 107/1/2
f 108/1/2 109/1/2 110/1/2
f 110/1/2 109/1/2 111/1/2
f 112/1/2 113/1/2 115/1/2
f 113/4/2 114/4/2 116/4/2
f 115/1/2 113/1/2 116/1/2
f 116/4/2 114/4/2 117/4/2
f 115/1/2 116/1/2 118/1/2
f 118/1/2 116/1/2 119/1/2
f 122/4/2 123/4/2 126/4/2
f 126/4/2 123/4/2 127/4/2
f 120/1/2 121/1/2 128/1/2
f 128/1/2 121/1/2 129/1/2
f 124/2/2 125/2/2 130/2/2
f 130/2/2 125/2/2 131/2/2
f 132/1/2 133/1/2 136/1/2
f 136/1/2 133/1/2 137/1/2
f 134/4/2 135/4/2 138/4/2
f 138/4/2 135/4/2 139/4/2
f 136/3/2 137/3/2 140/3/2
f 137/1/2 133/1/2 141/1/2
f 140/3/2 137/3/2 141/3/2
f 141/1/2 133/1/2 142/1/2
f 143/1/2 144/1/2 145/1/2
f 143/1/2 145/1/2 146/1/2
f 146/1/2 145/1/2 147/1/2
f 148/1/2 149/1/2 150/1/2
f 150/1/2 149/1/2 151/1/2
f 150/3/2 151/3/2 152/3/2
f 152/3/2 151/3/2 153/3/2
f 154/1/2 155/1/2 156/1/2
f 156/1/2 155/1/2 157/1/2
f 158/1/2 159/1/2 160/1/2
f 158/1/2 160/1/2 161/1/2
f 161/1/2 160/1/2 162/1/2
f 163/1/2 164/1/2 165/1/2
f 165/1/2 164/1/2 166/1/2
f 165/3/2 166/3/2 167/3/2
f 166/1/2 164/1/2 168/1/2
f 167/3/2 166/3/2 168/3/2
f 168/1/2 164/1/2 169/1/2
f 172/1/3 171/1/3 170/1/3
f 173/1/3 171/1/3 172/1/3
f 176/1/3 175/1/3 174/1/3
f 177/1/3 175/1/3 176/1/3
f 180/1/3 179/1/3 178/1/3
f 181/1/3 179/1/3 180/1/3
f 182/1/3 180/1/3 178/1/3
f 183/3/3 181/3/3 180/3/3
f 183/1/3 180/1/3 182/1/3
f 184/3/3 181/3/3 183/3/3
f 187/1/3 186/1/3 185/1/3
f 188/1/3 186/1/3 187/1/3
f 191/1/3 190/1/3 189/1/3
f 192/1/3 190/1/3 191/1/3
f 196/1/3 194/1/3 193/1/3
f 197/3/3 195/3/3 194/3/3
f 197/1/3 194/1/3 196/1/3
f 198/3/3 195/3/3 197/3/3
f 201/1/3 200/1/3 199/1/3
f 202/1/3 200/1/3 201/1/3
f 206/1/3 204/1/3 203/1/3
f 207/3/3 205/3/3 204/3/3
f 207/1/3 204/1/3 206/1/3
f 208/3/3 205/3/3 207/3/3
f 212/1/3 210/1/3 209/1/3
f 212/1/3 211/1/3 210/1/3
f 213/1/3 211/1/3 212/1/3
f 217/1/3 215/1/3 214/1/3
f 218/3/3 216/3/3 215/3/3
f 218/1/3 215/1/3 217/1/3
f 219/3/3 216/3/3 218/3/3
f 222/1/3 221/1/3 220/1/3
f 223/1/3 221/1/3 222/1/3
f 226/1/3 225/1/3 224/1/3
f 227/1/3 225/1/3 226/1/3
f 231/1/3 229/1/3 228/1/3
f 232/3/3 230/3/3 229/3/3
f 232/1/3 229/1/3 231/1/3
f 233/3/3 230/3/3 232/3/3
f 237/2/3 235/2/3 234/2/3
f 237/2/3 236/2/3 235/2/3
f 238/2/3 236/2/3 237/2/3
f 240/2/3 236/2/3 238/2/3
f 241/2/3 240/2/3 239/2/3
f 242/2/3 236/2/3 240/2/3
f 242/2/3 240/2/3 241/2/3
f 243/2/3 236/2/3 242/2/3
f 244/2/3 236/2/3 243/2/3
f 248/2/3 246/2/3 245/2/3
f 248/2/3 247/2/3 246/2/3
f 249/2/3 247/2/3 248/2/3
f 251/2/3 247/2/3 249/2/3
f 252/2/3 251/2/3 250/2/3
f 253/2/3 247/2/3 251/2/3
f 253/2/3 251/2/3 252/2/3
f 255/2/3 247/2/3 253/2/3
f 256/2/3 255/2/3 254/2/3
f 257/2/3 247/2/3 255/2/3
f 257/2/3 255/2/3 256/2/3
f 258/2/3 247/2/3 257/2/3
f 259/2/3 247/2/3 258/2/3
f 262/1/3 261/1/3 260/1/3
f 263/1/3 261/1/3 262/1/3
f 264/3/4 265/3/4 267/3/4
f 265/1/4 266/1/4 268/1/4
f 267/3/4 265/3/4 268/3/4
f 268/1/4 266/1/4 270/1/4
f 269/1/4 270/1/4 271/1/4
f 270/1/4 266/1/4 272/1/4
f 271/1/4 270/1/4 272/1/4
f 273/1/4 274/1/4 275/1/4
f 275/1/4 274/1/4 276/1/4
f 277/1/4 278/1/4 280/1/4
f 278/1/4 279/1/4 280/1/4
f 280/1/4 279/1/4 281/1/4
f 281/1/4 279/1/4 282/1/4
f 283/1/4 284/1/4 285/1/4
f 285/1/4 284/1/4 286/1/4
f 287/1/4 288/1/4 290/1/4
f 288/1/4 289/1/4 290/1/4
f 290/1/4 289/1/4 291/1/4
f 292/1/4 293/1/4 294/1/4
f 294/1/4 293/1/4 295/1/4
f 296/1/4 297/1/4 298/1/4
f 298/1/4 297/1/4 299/1/4
f 300/1/4 301/1/4 302/1/4
f 302/1/4 301/1/4 303/1/4
f 303/1/4 301/1/4 304/1/4
f 305/2/4 306/2/4 307/2/4
f 307/2/4 306/2/4 308/2/4
f 307/1/4 308/1/4 309/1/4
f 309/1/4 308/1/4 310/1/4
f 311/1/4 312/1/4 313/1/4
f 313/1/4 312/1/4 314/1/4
f 313/2/4 314/2/4 315/2/4
f 315/2/4 314/2/4 316/2/4
f 317/1/4 318/1/4 319/1/4
f 319/1/4 318/1/4 320/1/4
f 324/1/5 322/1/5 321/1/5
f 325/1/5 322/1/5 324/1/5
f 328/1/5 324/1/5 323/1/5
f 328/1/5 326/1/5 325/1/5
f 328/1/5 325/1/5 324/1/5
f 329/1/5 326/1/5 328/1/5
f 330/1/5 326/1/5 329/1/5
f 331/1/5 328/1/5 327/1/5
f 331/1/5 329/1/5 328/1/5
f 331/3/5 330/3/5 329/3/5
f 332/1/5 326/1/5 330/1/5
f 332/3/5 330/3/5 331/3/5
f 333/1/5 326/1/5 332/1/5
f 334/1/5 326/1/5 333/1/5
f 335/1/5 326/1/5 334/1/5
f 338/1/5 331/1/5 327/1/5
f 339/1/5 331/1/5 338/1/5
f 340/1/5 331/1/5 339/1/5
f 341/1/5 335/1/5 334/1/5
f 341/1/5 336/1/5 335/1/5
f 342/1/5 336/1/5 341/1/5
f 343/3/5 342/3/5 341/3/5
f 344/1/5 336/1/5 342/1/5
f 344/3/5 342/3/5 343/3/5
f 346/1/5 339/1/5 338/1/5
f 346/1/5 338/1/5 337/1/5
f 347/1/5 339/1/5 346/1/5
f 348/4/5 340/4/5 339/4/5
f 348/1/5 339/1/5 347/1/5
f 349/1/5 344/1/5 343/1/5
f 350/1/5 336/1/5 344/1/5
f 350/1/5 344/1/5 349/1/5
f 351/1/5 336/1/5 350/1/5
f 353/3/5 347/3/5 346/3/5
f 353/1/5 346/1/5 345/1/5
f 354/3/5 347/3/5 353/3/5
f 355/1/5 352/1/5 351/1/5
f 355/1/5 351/1/5 350/1/5
f 355/4/5 350/4/5 349/4/5
f 356/1/5 352/1/5 355/1/5
f 357/1/5 352/1/5 356/1/5
f 360/1/5 354/1/5 353/1/5
f 360/1/5 353/1/5 345/1/5
f 361/1/5 354/1/5 360/1/5
f 362/1/5 354/1/5 361/1/5
f 363/1/5 357/1/5 356/1/5
f 363/1/5 358/1/5 357/1/5
f 364/1/5 358/1/5 363/1/5
f 365/1/5 358/1/5 364/1/5
f 368/1/5 361/1/5 360/1/5
f 368/1/5 360/1/5 359/1/5
f 369/1/5 361/1/5 368/1/5
f 370/4/5 362/4/5 361/4/5
f 370/1/5 361/1/5 369/1/5
f 371/3/5 365/3/5 364/3/5
f 371/4/5 364/4/5 363/4/5
f 372/1/5 366/1/5 365/1/5
f 372/3/5 365/3/5 371/3/5
f 373/1/5 366/1/5 372/1/5
f 375/1/5 369/1/5 368/1/5
f 375/1/5 368/1/5 367/1/5
f 376/1/5 369/1/5 375/1/5
f 377/4/5 333/4/5 332/4/5
f 378/4/5 355/4/5 349/4/5
f 379/4/5 355/4/5 378/4/5
f 380/4/5 371/4/5 363/4/5
f 381/1/5 374/1/5 373/1/5
f 381/1/5 373/1/5 372/1/5
f 381/4/5 371/4/5 380/4/5
f 381/1/5 372/1/5 371/1/5
f 382/1/5 374/1/5 381/1/5
f 383/3/5 376/3/5 375/3/5
f 383/1/5 375/1/5 367/1/5
f 384/3/5 376/3/5 383/3/5
f 385/4/5 362/4/5 370/4/5
f 386/4/5 362/4/5 385/4/5
f 387/4/5 340/4/5 348/4/5
f 388/4/5 340/4/5 387/4/5
f 389/4/5 377/4/5 332/4/5
f 390/2/5 380/2/5 379/2/5
f 390/2/5 379/2/5 378/2/5
f 390/4/5 377/4/5 389/4/5
f 390/2/5 378/2/5 377/2/5
f 390/2/5 382/2/5 381/2/5
f 390/2/5 381/2/5 380/2/5
f 391/1/5 374/1/5 382/1/5
f 391/2/5 382/2/5 390/2/5
f 392/1/5 374/1/5 391/1/5
f 394/1/5 384/1/5 383/1/5
f 394/1/5 383/1/5 367/1/5
f 395/1/5 384/1/5 394/1/5
f 396/2/5 389/2/5 388/2/5
f 396/1/5 384/1/5 395/1/5
f 396/2/5 390/2/5 389/2/5
f 396/2/5 386/2/5 385/2/5
f 396/2/5 388/2/5 387/2/5
f 396/2/5 387/2/5 386/2/5
f 396/2/5 385/2/5 384/2/5
f 397/2/5 390/2/5 396/2/5
f 398/1/5 395/1/5 394/1/5
f 398/1/5 394/1/5 393/1/5
f 399/1/5 395/1/5 398/1/5
f 402/4/6 403/4/6 404/4/6
f 405/4/6 406/4/6 407/4/6
f 408/4/6 409/4/6 412/4/6
f 400/4/6 401/4/6 413/4/6
f 405/4/6 407/4/6 414/4/6
f 414/4/6 407/4/6 415/4/6
f 410/4/6 411/4/6 416/4/6
f 416/4/6 411/4/6 417/4/6
f 412/4/6 409/4/6 418/4/6
f 418/4/6 409/4/6 419/4/6
f 404/4/6 403/4/6 420/4/6
f 420/4/6 403/4/6 421/4/6
f 400/4/6 413/4/6 422/4/6
f 422/4/6 413/4/6 423/4/6
f 424/1/6 425/1/6 427/1/6
f 427/1/6 425/1/6 428/1/6
f 426/1/6 427/1/6 432/1/6
f 427/1/6 428/1/6 432/1/6
f 428/1/6 429/1/6 432/1/6
f 429/3/6 430/3/6 433/3/6
f 432/1/6 429/1/6 433/1/6
f 433/3/6 430/3/6 434/3/6
f 431/1/6 432/1/6 435/1/6
f 432/1/6 433/1/6 435/1/6
f 433/1/6 434/1/6 435/1/6
f 435/1/6 434/1/6 436/1/6
f 436/1/6 434/1/6 437/1/6
f 431/1/6 435/1/6 440/1/6
f 440/1/6 435/1/6 441/1/6
f 441/1/6 435/1/6 442/1/6
f 439/3/6 440/3/6 443/3/6
f 440/1/6 441/1/6 444/1/6
f 443/3/6 440/3/6 444/3/6
f 443/1/6 444/1/6 446/1/6
f 444/1/6 441/1/6 447/1/6
f 446/1/6 444/1/6 447/1/6
f 447/1/6 441/1/6 448/1/6
f 436/1/6 437/1/6 449/1/6
f 437/1/6 438/1/6 449/1/6
f 449/1/6 438/1/6 450/1/6
f 450/1/6 438/1/6 451/1/6
f 450/1/6 451/1/6 453/1/6
f 451/3/6 452/3/6 454/3/6
f 453/1/6 451/1/6 454/1/6
f 454/3/6 452/3/6 455/3/6
f 446/1/6 447/1/6 458/1/6
f 445/1/6 446/1/6 458/1/6
f 458/1/6 447/1/6 459/1/6
f 459/1/6 447/1/6 460/1/6
f 457/3/6 458/3/6 461/3/6
f 458/1/6 459/1/6 462/1/6
f 461/3/6 458/3/6 462/3/6
f 454/1/6 455/1/6 463/1/6
f 455/1/6 456/1/6 463/1/6
f 463/1/6 456/1/6 464/1/6
f 464/1/6 456/1/6 465/1/6
f 461/1/6 462/1/6 468/1/6
f 462/1/6 459/1/6 469/1/6
f 468/1/6 462/1/6 469/1/6
f 469/1/6 459/1/6 470/1/6
f 464/1/6 465/1/6 471/1/6
f 465/1/6 466/1/6 471/1/6
f 464/1/6 471/1/6 474/1/6
f 474/1/6 471/1/6 475/1/6
f 471/3/6 472/3/6 476/3/6
f 475/1/6 471/1/6 476/1/6
f 476/3/6 472/3/6 477/3/6
f 467/1/6 468/1/6 478/1/6
f 468/1/6 469/1/6 478/1/6
f 474/2/6 475/2/6 479/2/6
f 473/2/6 474/2/6 479/2/6
f 476/1/6 477/1/6 480/1/6
f 475/1/6 476/1/6 480/1/6
f 479/2/6 475/2/6 480/2/6
f 480/1/6 477/1/6 481/1/6
f 467/1/6 478/1/6 483/1/6
f 483/1/6 478/1/6 484/1/6
f 478/2/6 479/2/6 485/2/6
f 484/1/6 478/1/6 485/1/6
f 485/2/6 479/2/6 486/2/6
f 483/1/6 484/1/6 487/1/6
f 482/1/6 483/1/6 487/1/6
f 487/1/6 484/1/6 488/1/6
