# MagicaVoxel @ Ephtracy

# group
o 

# material
mtllib Sword obj.mtl
usemtl palette

# normals
vn -1 0 0
vn 1 0 0
vn 0 0 1
vn 0 0 -1
vn 0 -1 0
vn 0 1 0

# texcoords
vt 0.537109 0.5
vt 0.970703 0.5
vt 0.974609 0.5
vt 0.986328 0.5

# verts
v -0.4 1.6 -1.8
v -0.4 1.6 -2
v -0.4 1.7 -1.7
v -0.4 1.7 -1.8
v -0.4 1.7 -1.9
v -0.4 1.7 -2
v -0.4 1.8 -1.7
v -0.4 1.8 -1.9
v -0.3 1.2 -1.8
v -0.3 1.2 -1.9
v -0.3 1.3 -1.8
v -0.3 1.3 -1.9
v -0.3 1.8 -1.8
v -0.3 1.8 -1.9
v -0.3 2.9 -1.8
v -0.3 2.9 -1.9
v -0.2 1.2 -1.9
v -0.2 1.2 -2
v -0.2 1.3 -1.8
v -0.2 1.3 -1.9
v -0.2 1.3 -2
v -0.2 1.6 -1.8
v -0.2 1.6 -1.9
v -0.2 2.9 -1.8
v -0.2 2.9 -1.9
v -0.2 3.1 -1.8
v -0.2 3.1 -1.9
v -0.1 1.2 -1.9
v -0.1 1.2 -2
v -0.1 1.3 -1.8
v -0.1 1.3 -1.9
v -0.1 1.3 -2
v -0.1 1.6 -1.8
v -0.1 1.6 -1.9
v -0.1 2.9 -1.8
v -0.1 2.9 -1.9
v -0.1 3.1 -1.8
v -0.1 3.1 -1.9
v 0 1.2 -1.8
v 0 1.2 -1.9
v 0 1.3 -1.8
v 0 1.3 -1.9
v 0 1.8 -1.8
v 0 1.8 -1.9
v 0 2.9 -1.8
v 0 2.9 -1.9
v 0.1 1.6 -1.8
v 0.1 1.6 -2
v 0.1 1.7 -1.7
v 0.1 1.7 -1.8
v 0.1 1.7 -1.9
v 0.1 1.7 -2
v 0.1 1.8 -1.7
v 0.1 1.8 -1.9
v -0.4 1.7 -1.7
v -0.4 1.8 -1.7
v 0.1 1.7 -1.7
v 0.1 1.8 -1.7
v -0.4 1.6 -1.8
v -0.4 1.7 -1.8
v -0.3 1.2 -1.8
v -0.3 1.3 -1.8
v -0.3 1.8 -1.8
v -0.3 2.9 -1.8
v -0.2 1.2 -1.8
v -0.2 1.3 -1.8
v -0.2 1.6 -1.8
v -0.2 1.8 -1.8
v -0.2 2.9 -1.8
v -0.2 3.1 -1.8
v -0.1 1.2 -1.8
v -0.1 1.3 -1.8
v -0.1 1.6 -1.8
v -0.1 1.8 -1.8
v -0.1 2.9 -1.8
v -0.1 3.1 -1.8
v 0 1.2 -1.8
v 0 1.3 -1.8
v 0 1.8 -1.8
v 0 2.9 -1.8
v 0.1 1.6 -1.8
v 0.1 1.7 -1.8
v -0.4 1.7 -1.9
v -0.4 1.8 -1.9
v -0.3 1.2 -1.9
v -0.3 1.3 -1.9
v -0.3 1.7 -1.9
v -0.3 1.8 -1.9
v -0.3 2.9 -1.9
v -0.2 1.2 -1.9
v -0.2 1.3 -1.9
v -0.2 1.6 -1.9
v -0.2 1.7 -1.9
v -0.2 2.9 -1.9
v -0.2 3.1 -1.9
v -0.1 1.2 -1.9
v -0.1 1.3 -1.9
v -0.1 1.6 -1.9
v -0.1 1.7 -1.9
v -0.1 2.9 -1.9
v -0.1 3.1 -1.9
v 0 1.2 -1.9
v 0 1.3 -1.9
v 0 1.7 -1.9
v 0 1.8 -1.9
v 0 2.9 -1.9
v 0.1 1.7 -1.9
v 0.1 1.8 -1.9
v -0.4 1.6 -2
v -0.4 1.7 -2
v -0.2 1.2 -2
v -0.2 1.3 -2
v -0.1 1.2 -2
v -0.1 1.3 -2
v 0.1 1.6 -2
v 0.1 1.7 -2
v -0.3 1.2 -1.8
v -0.2 1.2 -1.8
v -0.1 1.2 -1.8
v 0 1.2 -1.8
v -0.3 1.2 -1.9
v -0.2 1.2 -1.9
v -0.1 1.2 -1.9
v 0 1.2 -1.9
v -0.2 1.2 -2
v -0.1 1.2 -2
v -0.4 1.6 -1.8
v -0.2 1.6 -1.8
v -0.1 1.6 -1.8
v 0.1 1.6 -1.8
v -0.2 1.6 -1.9
v -0.1 1.6 -1.9
v -0.4 1.6 -2
v 0.1 1.6 -2
v -0.4 1.7 -1.7
v 0.1 1.7 -1.7
v -0.4 1.7 -1.8
v 0.1 1.7 -1.8
v -0.3 1.3 -1.8
v -0.2 1.3 -1.8
v -0.1 1.3 -1.8
v 0 1.3 -1.8
v -0.3 1.3 -1.9
v -0.2 1.3 -1.9
v -0.1 1.3 -1.9
v 0 1.3 -1.9
v -0.2 1.3 -2
v -0.1 1.3 -2
v -0.4 1.7 -1.9
v -0.3 1.7 -1.9
v -0.2 1.7 -1.9
v -0.1 1.7 -1.9
v 0 1.7 -1.9
v 0.1 1.7 -1.9
v -0.4 1.7 -2
v 0.1 1.7 -2
v -0.4 1.8 -1.7
v 0.1 1.8 -1.7
v -0.3 1.8 -1.8
v -0.2 1.8 -1.8
v -0.1 1.8 -1.8
v 0 1.8 -1.8
v -0.4 1.8 -1.9
v -0.3 1.8 -1.9
v 0 1.8 -1.9
v 0.1 1.8 -1.9
v -0.3 2.9 -1.8
v -0.2 2.9 -1.8
v -0.1 2.9 -1.8
v 0 2.9 -1.8
v -0.3 2.9 -1.9
v -0.2 2.9 -1.9
v -0.1 2.9 -1.9
v 0 2.9 -1.9
v -0.2 3.1 -1.8
v -0.1 3.1 -1.8
v -0.2 3.1 -1.9
v -0.1 3.1 -1.9

# faces
f 4/4/1 2/4/1 1/4/1
f 5/4/1 2/4/1 4/4/1
f 6/4/1 2/4/1 5/4/1
f 7/4/1 4/4/1 3/4/1
f 7/4/1 5/4/1 4/4/1
f 8/4/1 5/4/1 7/4/1
f 11/3/1 10/3/1 9/3/1
f 12/3/1 10/3/1 11/3/1
f 15/2/1 14/2/1 13/2/1
f 16/2/1 14/2/1 15/2/1
f 20/3/1 18/3/1 17/3/1
f 21/3/1 18/3/1 20/3/1
f 22/1/1 20/1/1 19/1/1
f 23/1/1 20/1/1 22/1/1
f 26/2/1 25/2/1 24/2/1
f 27/2/1 25/2/1 26/2/1
f 28/3/2 29/3/2 31/3/2
f 31/3/2 29/3/2 32/3/2
f 30/1/2 31/1/2 33/1/2
f 33/1/2 31/1/2 34/1/2
f 35/2/2 36/2/2 37/2/2
f 37/2/2 36/2/2 38/2/2
f 39/3/2 40/3/2 41/3/2
f 41/3/2 40/3/2 42/3/2
f 43/2/2 44/2/2 45/2/2
f 45/2/2 44/2/2 46/2/2
f 47/4/2 48/4/2 50/4/2
f 50/4/2 48/4/2 51/4/2
f 51/4/2 48/4/2 52/4/2
f 49/4/2 50/4/2 53/4/2
f 50/4/2 51/4/2 53/4/2
f 53/4/2 51/4/2 54/4/2
f 57/4/3 56/4/3 55/4/3
f 58/4/3 56/4/3 57/4/3
f 65/3/3 62/3/3 61/3/3
f 66/3/3 62/3/3 65/3/3
f 67/4/3 60/4/3 59/4/3
f 68/2/3 64/2/3 63/2/3
f 69/2/3 64/2/3 68/2/3
f 71/1/3 66/1/3 65/1/3
f 71/1/3 67/1/3 66/1/3
f 72/1/3 67/1/3 71/1/3
f 73/4/3 60/4/3 67/4/3
f 73/1/3 67/1/3 72/1/3
f 74/3/3 69/3/3 68/3/3
f 75/2/3 70/2/3 69/2/3
f 75/3/3 69/3/3 74/3/3
f 76/2/3 70/2/3 75/2/3
f 77/3/3 72/3/3 71/3/3
f 78/3/3 72/3/3 77/3/3
f 79/2/3 75/2/3 74/2/3
f 80/2/3 75/2/3 79/2/3
f 81/4/3 60/4/3 73/4/3
f 82/4/3 60/4/3 81/4/3
f 83/4/4 84/4/4 87/4/4
f 87/4/4 84/4/4 88/4/4
f 85/3/4 86/3/4 90/3/4
f 90/3/4 86/3/4 91/3/4
f 88/2/4 89/2/4 93/2/4
f 87/2/4 88/2/4 93/2/4
f 93/2/4 89/2/4 94/2/4
f 91/1/4 92/1/4 97/1/4
f 97/1/4 92/1/4 98/1/4
f 93/3/4 94/3/4 99/3/4
f 94/2/4 95/2/4 100/2/4
f 99/3/4 94/3/4 100/3/4
f 100/2/4 95/2/4 101/2/4
f 96/3/4 97/3/4 102/3/4
f 102/3/4 97/3/4 103/3/4
f 99/2/4 100/2/4 104/2/4
f 104/2/4 100/2/4 105/2/4
f 105/2/4 100/2/4 106/2/4
f 104/4/4 105/4/4 107/4/4
f 107/4/4 105/4/4 108/4/4
f 111/3/4 112/3/4 113/3/4
f 113/3/4 112/3/4 114/3/4
f 109/4/4 110/4/4 115/4/4
f 115/4/4 110/4/4 116/4/4
f 121/3/5 118/3/5 117/3/5
f 122/1/5 119/1/5 118/1/5
f 122/3/5 118/3/5 121/3/5
f 123/3/5 120/3/5 119/3/5
f 123/1/5 119/1/5 122/1/5
f 124/3/5 120/3/5 123/3/5
f 125/3/5 123/3/5 122/3/5
f 126/3/5 123/3/5 125/3/5
f 131/4/5 128/4/5 127/4/5
f 132/4/5 130/4/5 129/4/5
f 133/4/5 131/4/5 127/4/5
f 133/4/5 132/4/5 131/4/5
f 134/4/5 130/4/5 132/4/5
f 134/4/5 132/4/5 133/4/5
f 137/4/5 136/4/5 135/4/5
f 138/4/5 136/4/5 137/4/5
f 139/3/6 140/3/6 143/3/6
f 143/3/6 140/3/6 144/3/6
f 141/3/6 142/3/6 145/3/6
f 145/3/6 142/3/6 146/3/6
f 144/3/6 145/3/6 147/3/6
f 147/3/6 145/3/6 148/3/6
f 149/4/6 150/4/6 155/4/6
f 153/4/6 154/4/6 155/4/6
f 152/4/6 153/4/6 155/4/6
f 151/4/6 152/4/6 155/4/6
f 150/4/6 151/4/6 155/4/6
f 155/4/6 154/4/6 156/4/6
f 157/4/6 158/4/6 159/4/6
f 159/4/6 158/4/6 160/4/6
f 160/4/6 158/4/6 161/4/6
f 161/4/6 158/4/6 162/4/6
f 157/4/6 159/4/6 163/4/6
f 163/4/6 159/4/6 164/4/6
f 162/4/6 158/4/6 165/4/6
f 165/4/6 158/4/6 166/4/6
f 167/2/6 168/2/6 171/2/6
f 171/2/6 168/2/6 172/2/6
f 169/2/6 170/2/6 173/2/6
f 173/2/6 170/2/6 174/2/6
f 175/2/6 176/2/6 177/2/6
f 177/2/6 176/2/6 178/2/6
